<svg id="Layer_2" data-name="Layer 2" xmlns="http://www.w3.org/2000/svg" viewBox="0 0 223.64 307.99"><defs><style>.cls-1{fill:none;stroke:#a7cecb;stroke-miterlimit:10;stroke-width:2px;}</style></defs><title>lineartplant</title><path class="cls-1" d="M222.06,396.15V376.81l1.53-3.07-.77-38.55.77-7.67V256.74l-1.53-6.48s-.68-27.63-2.22-32.23l-1-28-3.07-24.56,1.41-13.7s4.78,17.89,4.43,26.74a166.08,166.08,0,0,0,.53,18.6l.53,6.91,3.9,30.82,1.06,15.41,1.06,4.78v6.2s3.51,42.7,2.69,68.22c-.2.2-1,6.53-1,6.53l1.14,43.89-1.55,2.45v13.79Z" transform="translate(-93.3 -89.16)"/><path class="cls-1" d="M270.6,113s-16.25-14.83-40.5,17.42c0-.24-29.43,43.79-3.77,54.39-.24.24,25-.06,35.55-14.15,0-.21,16.72-19,17.42-44.24,0,0,.71-14.81-5.42-16.82C273.66,110.17,272,109.93,270.6,113Z" transform="translate(-93.3 -89.16)"/><path class="cls-1" d="M227.56,183.85s22.22-57.36,28.11-63.48,10.87-9.24,13.71-8.26" transform="translate(-93.3 -89.16)"/><path class="cls-1" d="M273.89,109.59s-10.52-.69-14.66,0" transform="translate(-93.3 -89.16)"/><path class="cls-1" d="M210.72,151.8s10.9-5.74,1.78-20.2-32.26-32.26-32.26-32.26-17.58-10-27.81-9.12-17.13,1.56-14.24,10.68,8.68,24.7,30.26,36.93,26.25,9.39,26.25,9.39,10.46,1,12.68,4.58S210.72,151.8,210.72,151.8Z" transform="translate(-93.3 -89.16)"/><path class="cls-1" d="M205.82,147.89s-15.13-20.52-26.48-31S153,95.54,148.87,93.33s-5.48-1.94-5.48-1.94" transform="translate(-93.3 -89.16)"/><path class="cls-1" d="M205.11,149.88s10,16.17,10.75,19.4" transform="translate(-93.3 -89.16)"/><path class="cls-1" d="M210.72,151.8s5.75,7.06,5.51,11.18" transform="translate(-93.3 -89.16)"/><path class="cls-1" d="M222,196.09s4.07-5.18,4.23-7a41.45,41.45,0,0,0,.07-4.26" transform="translate(-93.3 -89.16)"/><path class="cls-1" d="M230.23,184.68s.23,3.17-.74,5-7.09,11-7.09,11" transform="translate(-93.3 -89.16)"/><path class="cls-1" d="M204.08,119s6.85-14,9.4-15.17,4.3-7.19,4.3-7.19,6.86-5.06,12.47,4.47,8.83,17,8.68,19.21" transform="translate(-93.3 -89.16)"/><path class="cls-1" d="M202,148.64a7.31,7.31,0,0,1,0,4.76c-.91,2.41-4.63,7.47,0,8.28s12.42,4.26,12.42,4.26" transform="translate(-93.3 -89.16)"/><path class="cls-1" d="M214.4,105.11s-2.11,11.82-.92,21.2l1.19,9.38,3.37,19.6" transform="translate(-93.3 -89.16)"/><path class="cls-1" d="M213.48,205.24a12.64,12.64,0,0,1-1.9,1c-3.29,1.42-10.59,3.43-20.05-1a102.12,102.12,0,0,0-22.78-7.81l-14.53-5.64-6.07,2.82s4.34-5.21,4.12-8,.87-5.86,4.56-5.86,41.4,3.47,59.42,18.66C216.24,199.39,218.91,203.11,213.48,205.24Z" transform="translate(-93.3 -89.16)"/><path class="cls-1" d="M219.85,218s-5-10.35-7.67-12.07" transform="translate(-93.3 -89.16)"/><path class="cls-1" d="M219.85,212s-5.09-4.71-5.45-7.16" transform="translate(-93.3 -89.16)"/><path class="cls-1" d="M210.72,204.11s-7.84-8.64-24.72-9.77S166.2,189,166.2,189s-6.91-3.72-9.17-2.13" transform="translate(-93.3 -89.16)"/><path class="cls-1" d="M299.48,214.86s-13.27.61-21.6,3.17-35.4,20.52-42.95,33c0,0-24.62,23.69-7.37,37.48l7.5,2s12.78-2.61,30.5-14.15,23.9-17.72,23.9-17.72,9.89-13.19,11.4-26S299.48,214.86,299.48,214.86Z" transform="translate(-93.3 -89.16)"/><path class="cls-1" d="M231.49,305s5-6.6,5-7.57v-7.32" transform="translate(-93.3 -89.16)"/><path class="cls-1" d="M231.49,311s6.94-9.31,7.52-11.25.32-9.32,1.71-11" transform="translate(-93.3 -89.16)"/><path class="cls-1" d="M238.43,287s15.4-41.14,22.93-48.9,20.34-20.76,35.67-21.73" transform="translate(-93.3 -89.16)"/><path class="cls-1" d="M210.72,242.69s7.1-9.44-31.2-22c0,0-33.16-13.55-54.16-14.7-.17-.14-20.49-3.11-28.22,2-.17.22-7.73,3.92,2.52,12.65s41.16,24.86,57.37,26.71S190.09,250.67,210.72,242.69Z" transform="translate(-93.3 -89.16)"/><path class="cls-1" d="M97.31,210.18s22.57.84,55.46,13.44S206,242.1,206,242.1" transform="translate(-93.3 -89.16)"/><path class="cls-1" d="M206,244.38s16.94,9,17.63,13.64" transform="translate(-93.3 -89.16)"/><path class="cls-1" d="M211.1,241.81s10.24,6.55,11,8.7" transform="translate(-93.3 -89.16)"/><path class="cls-1" d="M226,230.87s2,1,3.47-5.62,0-10.39,0-10.39" transform="translate(-93.3 -89.16)"/><path class="cls-1" d="M226.36,233.38s4.42.65,5.13-3.25,1.19-7.8,1.19-7.8L231.49,214" transform="translate(-93.3 -89.16)"/><path class="cls-1" d="M248.48,182.8s-15.65,7.88-19,15.93a43.8,43.8,0,0,0-3.16,15.62s1.33,4.2,9.49-4.73S246,193.27,246,193.27l.85-3.55Z" transform="translate(-93.3 -89.16)"/><path class="cls-1" d="M228.1,212.78s5.68-14.9,13.13-21.16" transform="translate(-93.3 -89.16)"/><path class="cls-1" d="M222.12,329.53s-21.48-24.22-27.54-25.8" transform="translate(-93.3 -89.16)"/><path class="cls-1" d="M222.83,335.2s-16.7-20.53-19.46-22.43-6.73-6.56-9.5-6.56" transform="translate(-93.3 -89.16)"/><path class="cls-1" d="M188.68,297.68c-19.14-11.41-34-8.07-53.64-7S119.81,301,119.81,301s21.24,16.75,35.91,17,30.46-6.59,30.46-6.59S203.29,306.39,188.68,297.68Z" transform="translate(-93.3 -89.16)"/><path class="cls-1" d="M234,329.53s8.7,11.16,28.41,4.64,21.38-12.69,21.38-12.69,9.19-9.19,20-12.19,11.36-15,11.36-15-2.34-7.85-.84-10a23.41,23.41,0,0,1-7.85.84c-5-.17-27,.33-45.14,16.2S234.14,319,234,329.53Z" transform="translate(-93.3 -89.16)"/><path class="cls-1" d="M240.73,329.53s15.49-18.91,28.86-22.42a251.22,251.22,0,0,0,25.89-8.52s12.53-7.5,14-9.76" transform="translate(-93.3 -89.16)"/><path class="cls-1" d="M134.62,299.94s29.57-7,55,5.09" transform="translate(-93.3 -89.16)"/><path class="cls-1" d="M230.73,350.87s6-10.09,5.76-14.66-.91-5.11-.91-5.11" transform="translate(-93.3 -89.16)"/><path class="cls-1" d="M230.88,356.56s6.46-5.85,7.55-10a64.44,64.44,0,0,0,1.25-11.33v-1.42" transform="translate(-93.3 -89.16)"/></svg>