<?xml version="1.0" encoding="utf-8"?>
<!-- Generator: Adobe Illustrator 23.0.0, SVG Export Plug-In . SVG Version: 6.00 Build 0)  -->
<svg version="1.1" id="Layer_1" xmlns="http://www.w3.org/2000/svg" xmlns:xlink="http://www.w3.org/1999/xlink" x="0px" y="0px"
	 viewBox="0 0 65.14 128.44" style="enable-background:new 0 0 65.14 128.44;" xml:space="preserve">
<style type="text/css">
	.st0{fill:none;stroke:#A7CDCB;stroke-width:2;stroke-miterlimit:10;}
</style>
<g>
	<g>
		<polyline class="st0" points="53.5,14.39 53.5,51.77 27.71,77.93 27.71,88.82 		"/>
		<polyline class="st0" points="34.68,71.69 45.34,82.55 45.34,98.25 		"/>
		<polyline class="st0" points="41.68,14.72 41.68,47.79 14.4,75.28 14.4,106.22 		"/>
		<line class="st0" x1="19.11" y1="58.28" x2="25.22" y2="64.39"/>
	</g>
	<path class="st0" d="M42.4,107.83h5.87c1.16,0,2.09-0.94,2.09-2.09v-5.87c0-1.16-0.94-2.09-2.09-2.09H42.4
		c-1.16,0-2.09,0.94-2.09,2.09v5.87C40.31,106.9,41.24,107.83,42.4,107.83z"/>
	<path class="st0" d="M24.77,98.25h5.87c1.16,0,2.09-0.94,2.09-2.09v-5.87c0-1.16-0.94-2.09-2.09-2.09h-5.87
		c-1.16,0-2.09,0.94-2.09,2.09v5.87C22.68,97.32,23.62,98.25,24.77,98.25z"/>
	<path class="st0" d="M11.47,116.28h5.87c1.16,0,2.09-0.94,2.09-2.09v-5.87c0-1.16-0.94-2.09-2.09-2.09h-5.87
		c-1.16,0-2.09,0.94-2.09,2.09v5.87C9.37,115.34,10.31,116.28,11.47,116.28z"/>
	<path class="st0" d="M10.28,56.57l4.15,4.15c0.82,0.82,2.14,0.82,2.96,0l4.15-4.15c0.82-0.82,0.82-2.14,0-2.96l-4.15-4.15
		c-0.82-0.82-2.14-0.82-2.96,0l-4.15,4.15C9.47,54.43,9.47,55.75,10.28,56.57z"/>
</g>
</svg>
