<?xml version="1.0" encoding="utf-8"?>
<!-- Generator: Adobe Illustrator 23.0.0, SVG Export Plug-In . SVG Version: 6.00 Build 0)  -->
<svg version="1.1" id="Layer_1" xmlns="http://www.w3.org/2000/svg" xmlns:xlink="http://www.w3.org/1999/xlink" x="0px" y="0px"
	 viewBox="0 0 84.4 155.7" style="enable-background:new 0 0 84.4 155.7;" xml:space="preserve">
<style type="text/css">
	.st0{fill:none;stroke:#A7CDCB;stroke-width:2;stroke-miterlimit:10;}
</style>
<g>
	<g>
		<polyline class="st0" points="22.49,19.89 22.49,57.27 48.28,83.43 48.28,94.32 		"/>
		<polyline class="st0" points="41.31,77.2 30.65,88.05 30.65,103.76 		"/>
		<polyline class="st0" points="34.31,20.22 34.31,53.29 61.59,80.78 61.59,111.73 		"/>
		<line class="st0" x1="56.88" y1="63.78" x2="50.77" y2="69.89"/>
	</g>
	<path class="st0" d="M33.59,113.34h-5.87c-1.16,0-2.09-0.94-2.09-2.09v-5.87c0-1.16,0.94-2.09,2.09-2.09h5.87
		c1.16,0,2.09,0.94,2.09,2.09v5.87C35.68,112.4,34.74,113.34,33.59,113.34z"/>
	<path class="st0" d="M51.22,103.76h-5.87c-1.16,0-2.09-0.94-2.09-2.09v-5.87c0-1.16,0.94-2.09,2.09-2.09h5.87
		c1.16,0,2.09,0.94,2.09,2.09v5.87C53.31,102.82,52.37,103.76,51.22,103.76z"/>
	<path class="st0" d="M64.52,121.79h-5.87c-1.16,0-2.09-0.94-2.09-2.09v-5.87c0-1.16,0.94-2.09,2.09-2.09h5.87
		c1.16,0,2.09,0.94,2.09,2.09v5.87C66.62,120.85,65.68,121.79,64.52,121.79z"/>
	<path class="st0" d="M65.7,62.07l-4.15,4.15c-0.82,0.82-2.14,0.82-2.96,0l-4.15-4.15c-0.82-0.82-0.82-2.14,0-2.96l4.15-4.15
		c0.82-0.82,2.14-0.82,2.96,0l4.15,4.15C66.52,59.93,66.52,61.26,65.7,62.07z"/>
</g>
</svg>
