<?xml version="1.0" encoding="utf-8"?>
<!-- Generator: Adobe Illustrator 23.0.0, SVG Export Plug-In . SVG Version: 6.00 Build 0)  -->
<svg version="1.1" id="Layer_1" xmlns="http://www.w3.org/2000/svg" xmlns:xlink="http://www.w3.org/1999/xlink" x="0px" y="0px"
	 viewBox="0 0 66.97 151.11" style="enable-background:new 0 0 66.97 151.11;" xml:space="preserve">
<style type="text/css">
	.st0{fill:none;stroke:#A7CDCB;stroke-width:2;stroke-miterlimit:10;}
</style>
<g>
	<line class="st0" x1="34.85" y1="15.64" x2="34.85" y2="118.64"/>
	<path class="st0" d="M31.92,129.13h5.87c1.16,0,2.09-0.94,2.09-2.09v-5.87c0-1.16-0.94-2.09-2.09-2.09h-5.87
		c-1.16,0-2.09,0.94-2.09,2.09v5.87C29.82,128.2,30.76,129.13,31.92,129.13z"/>
	<polyline class="st0" points="45.7,71.28 45.7,60.44 34.72,49.45 	"/>
	<path class="st0" d="M42.77,81.34h5.87c1.16,0,2.09-0.94,2.09-2.09v-5.87c0-1.16-0.94-2.09-2.09-2.09h-5.87
		c-1.16,0-2.09,0.94-2.09,2.09v5.87C40.67,80.4,41.61,81.34,42.77,81.34z"/>
	<polyline class="st0" points="23.87,80.08 23.87,69.24 34.85,58.26 	"/>
	<path class="st0" d="M26.8,90.14h-5.87c-1.16,0-2.09-0.94-2.09-2.09v-5.87c0-1.16,0.94-2.09,2.09-2.09h5.87
		c1.16,0,2.09,0.94,2.09,2.09v5.87C28.9,89.2,27.96,90.14,26.8,90.14z"/>
</g>
</svg>
